<svg xmlns="http://www.w3.org/2000/svg" viewBox="0 0 32 32">
    <g id="css_icon">
        <polygon points="5.902 27.201 3.656 2 28.344 2 26.095 27.197 15.985 30 5.902 27.201" fill="#1572b6"/>
        <polygon points="16 27.858 24.17 25.593 26.092 4.061 16 4.061 16 27.858" fill="#33a9dc"/>
        <polygon
                points="16 13.191 20.09 13.191 20.372 10.026 16 10.026 16 6.935 16.011 6.935 23.75 6.935 23.676 7.764 22.917 16.282 16 16.282 16 13.191"
                fill="#fff"/>
        <polygon
                points="16.019 21.218 16.005 21.222 12.563 20.292 12.343 17.827 10.67 17.827 9.24 17.827 9.673 22.68 16.004 24.438 16.019 24.434 16.019 21.218"
                fill="#ebebeb"/>
        <polygon
                points="19.827 16.151 19.455 20.29 16.008 21.22 16.008 24.436 22.344 22.68 22.391 22.158 22.928 16.151 19.827 16.151"
                fill="#fff"/>
        <polygon
                points="16.011 6.935 16.011 8.855 16.011 10.018 16.011 10.026 8.555 10.026 8.555 10.026 8.545 10.026 8.483 9.331 8.342 7.764 8.268 6.935 16.011 6.935"
                fill="#ebebeb"/>
        <polygon
                points="16 13.191 16 15.111 16 16.274 16 16.282 12.611 16.282 12.611 16.282 12.601 16.282 12.539 15.587 12.399 14.02 12.325 13.191 16 13.191"
                fill="#ebebeb"/>
    </g>
    <g id="html_icon">
        <polygon points="5.902 27.201 3.655 2 28.345 2 26.095 27.197 15.985 30 5.902 27.201" fill="#e44f26"/>
        <polygon points="16 27.858 24.17 25.593 26.092 4.061 16 4.061 16 27.858" fill="#f1662a"/>
        <polygon
                points="16 13.407 11.91 13.407 11.628 10.242 16 10.242 16 7.151 15.989 7.151 8.25 7.151 8.324 7.981 9.083 16.498 16 16.498 16 13.407"
                fill="#ebebeb"/>
        <polygon
                points="16 21.434 15.986 21.438 12.544 20.509 12.324 18.044 10.651 18.044 9.221 18.044 9.654 22.896 15.986 24.654 16 24.65 16 21.434"
                fill="#ebebeb"/>
        <polygon
                points="15.989 13.407 15.989 16.498 19.795 16.498 19.437 20.507 15.989 21.437 15.989 24.653 22.326 22.896 22.372 22.374 23.098 14.237 23.174 13.407 22.341 13.407 15.989 13.407"
                fill="#fff"/>
        <polygon
                points="15.989 7.151 15.989 9.071 15.989 10.235 15.989 10.242 23.445 10.242 23.445 10.242 23.455 10.242 23.517 9.548 23.658 7.981 23.732 7.151 15.989 7.151"
                fill="#fff"/>
    </g>
    <g id="javascript_icon">
        <path fill="#F0DB4F"
              d="M2 1v125h125v-125h-125zm66.119 106.513c-1.845 3.749-5.367 6.212-9.448 7.401-6.271 1.44-12.269.619-16.731-2.059-2.986-1.832-5.318-4.652-6.901-7.901l9.52-5.83c.083.035.333.487.667 1.071 1.214 2.034 2.261 3.474 4.319 4.485 2.022.69 6.461 1.131 8.175-2.427 1.047-1.81.714-7.628.714-14.065-.001-10.115.046-20.188.046-30.188h11.709c0 11 .06 21.418 0 32.152.025 6.58.596 12.446-2.07 17.361zm48.574-3.308c-4.07 13.922-26.762 14.374-35.83 5.176-1.916-2.165-3.117-3.296-4.26-5.795 4.819-2.772 4.819-2.772 9.508-5.485 2.547 3.915 4.902 6.068 9.139 6.949 5.748.702 11.531-1.273 10.234-7.378-1.333-4.986-11.77-6.199-18.873-11.531-7.211-4.843-8.901-16.611-2.975-23.335 1.975-2.487 5.343-4.343 8.877-5.235l3.688-.477c7.081-.143 11.507 1.727 14.756 5.355.904.916 1.642 1.904 3.022 4.045-3.772 2.404-3.76 2.381-9.163 5.879-1.154-2.486-3.069-4.046-5.093-4.724-3.142-.952-7.104.083-7.926 3.403-.285 1.023-.226 1.975.227 3.665 1.273 2.903 5.545 4.165 9.377 5.926 11.031 4.474 14.756 9.271 15.672 14.981.882 4.916-.213 8.105-.38 8.581z"/>
    </g>
    <g id="react_icon" fill="#61DAFB">
        <circle cx="64" cy="64" r="11.4"/>
        <path d="M107.3 45.2c-2.2-.8-4.5-1.6-6.9-2.3.6-2.4 1.1-4.8 1.5-7.1 2.1-13.2-.2-22.5-6.6-26.1-1.9-1.1-4-1.6-6.4-1.6-7 0-15.9 5.2-24.9 13.9-9-8.7-17.9-13.9-24.9-13.9-2.4 0-4.5.5-6.4 1.6-6.4 3.7-8.7 13-6.6 26.1.4 2.3.9 4.7 1.5 7.1-2.4.7-4.7 1.4-6.9 2.3-12.5 4.8-19.3 11.4-19.3 18.8s6.9 14 19.3 18.8c2.2.8 4.5 1.6 6.9 2.3-.6 2.4-1.1 4.8-1.5 7.1-2.1 13.2.2 22.5 6.6 26.1 1.9 1.1 4 1.6 6.4 1.6 7.1 0 16-5.2 24.9-13.9 9 8.7 17.9 13.9 24.9 13.9 2.4 0 4.5-.5 6.4-1.6 6.4-3.7 8.7-13 6.6-26.1-.4-2.3-.9-4.7-1.5-7.1 2.4-.7 4.7-1.4 6.9-2.3 12.5-4.8 19.3-11.4 19.3-18.8s-6.8-14-19.3-18.8zm-14.8-30.5c4.1 2.4 5.5 9.8 3.8 20.3-.3 2.1-.8 4.3-1.4 6.6-5.2-1.2-10.7-2-16.5-2.5-3.4-4.8-6.9-9.1-10.4-13 7.4-7.3 14.9-12.3 21-12.3 1.3 0 2.5.3 3.5.9zm-11.2 59.3c-1.8 3.2-3.9 6.4-6.1 9.6-3.7.3-7.4.4-11.2.4-3.9 0-7.6-.1-11.2-.4-2.2-3.2-4.2-6.4-6-9.6-1.9-3.3-3.7-6.7-5.3-10 1.6-3.3 3.4-6.7 5.3-10 1.8-3.2 3.9-6.4 6.1-9.6 3.7-.3 7.4-.4 11.2-.4 3.9 0 7.6.1 11.2.4 2.2 3.2 4.2 6.4 6 9.6 1.9 3.3 3.7 6.7 5.3 10-1.7 3.3-3.4 6.6-5.3 10zm8.3-3.3c1.5 3.5 2.7 6.9 3.8 10.3-3.4.8-7 1.4-10.8 1.9 1.2-1.9 2.5-3.9 3.6-6 1.2-2.1 2.3-4.2 3.4-6.2zm-25.6 27.1c-2.4-2.6-4.7-5.4-6.9-8.3 2.3.1 4.6.2 6.9.2 2.3 0 4.6-.1 6.9-.2-2.2 2.9-4.5 5.7-6.9 8.3zm-18.6-15c-3.8-.5-7.4-1.1-10.8-1.9 1.1-3.3 2.3-6.8 3.8-10.3 1.1 2 2.2 4.1 3.4 6.1 1.2 2.2 2.4 4.1 3.6 6.1zm-7-25.5c-1.5-3.5-2.7-6.9-3.8-10.3 3.4-.8 7-1.4 10.8-1.9-1.2 1.9-2.5 3.9-3.6 6-1.2 2.1-2.3 4.2-3.4 6.2zm25.6-27.1c2.4 2.6 4.7 5.4 6.9 8.3-2.3-.1-4.6-.2-6.9-.2-2.3 0-4.6.1-6.9.2 2.2-2.9 4.5-5.7 6.9-8.3zm22.2 21l-3.6-6c3.8.5 7.4 1.1 10.8 1.9-1.1 3.3-2.3 6.8-3.8 10.3-1.1-2.1-2.2-4.2-3.4-6.2zm-54.5-16.2c-1.7-10.5-.3-17.9 3.8-20.3 1-.6 2.2-.9 3.5-.9 6 0 13.5 4.9 21 12.3-3.5 3.8-7 8.2-10.4 13-5.8.5-11.3 1.4-16.5 2.5-.6-2.3-1-4.5-1.4-6.6zm-24.7 29c0-4.7 5.7-9.7 15.7-13.4 2-.8 4.2-1.5 6.4-2.1 1.6 5 3.6 10.3 6 15.6-2.4 5.3-4.5 10.5-6 15.5-13.8-4-22.1-10-22.1-15.6zm28.5 49.3c-4.1-2.4-5.5-9.8-3.8-20.3.3-2.1.8-4.3 1.4-6.6 5.2 1.2 10.7 2 16.5 2.5 3.4 4.8 6.9 9.1 10.4 13-7.4 7.3-14.9 12.3-21 12.3-1.3 0-2.5-.3-3.5-.9zm60.8-20.3c1.7 10.5.3 17.9-3.8 20.3-1 .6-2.2.9-3.5.9-6 0-13.5-4.9-21-12.3 3.5-3.8 7-8.2 10.4-13 5.8-.5 11.3-1.4 16.5-2.5.6 2.3 1 4.5 1.4 6.6zm9-15.6c-2 .8-4.2 1.5-6.4 2.1-1.6-5-3.6-10.3-6-15.6 2.4-5.3 4.5-10.5 6-15.5 13.8 4 22.1 10 22.1 15.6 0 4.7-5.8 9.7-15.7 13.4z"/>
    </g>
    <g id="redux_icon">
        <path fill="none" d="M0 0h128v128H0z"/>
        <path d="M88.69 88.11c-9 18.4-24.76 30.78-45.61 34.85a39.73 39.73 0 0 1-9.77 1.14c-12 0-23-5-28.34-13.19C-2.2 100-4.64 76.87 19 59.76c.48 2.61 1.46 6.19 2.11 8.31A38.24 38.24 0 0 0 10 81.1c-4.4 8.64-3.91 17.27 1.3 25.25 3.6 5.38 9.3 8.65 16.63 9.65a44 44 0 0 0 26.55-5c12.71-6.68 21.18-14.66 26.72-25.57a9.32 9.32 0 0 1-2.61-6A9.12 9.12 0 0 1 87.37 70h.34a9.15 9.15 0 0 1 1 18.25zm28.67-20.2c12.21 13.84 12.54 30.13 7.82 39.58-4.4 8.63-16 17.27-31.6 17.27a50.48 50.48 0 0 1-21-5.05c2.29-1.63 5.54-4.24 7.33-5.87a41.54 41.54 0 0 0 16 3.42c10.1 0 17.75-4.72 22.31-13.35 2.93-5.7 3.1-12.38.33-19.22a43.61 43.61 0 0 0-17.27-20.85 62 62 0 0 0-34.74-10.59h-2.93a9.21 9.21 0 0 1-8 5.54h-.31a9.13 9.13 0 0 1-.3-18.25h.33a9 9 0 0 1 8 4.89h2.61c20.8 0 39.06 7.98 51.42 22.48zm-82.75 23a7.31 7.31 0 0 1 1.14-4.73c-9.12-15.8-14-35.83-6.51-56.68C34.61 13.83 48.13 3.24 62.79 3.24c15.64 0 31.93 13.69 33.88 40.07-2.44-.81-6-2-8.14-2.44-.53-8.63-7.82-30.13-25.09-29.81-6.19.17-15.31 3.1-20 9.12a43.69 43.69 0 0 0-9.64 25.25 59.61 59.61 0 0 0 8.47 36.16 2.75 2.75 0 0 1 1.14-.16h.32a9.12 9.12 0 0 1 .33 18.24h-.33a9.16 9.16 0 0 1-9.12-8.79z"
              fill="#764abc"/>
    </g>
    <g id="typescript_icon">
        <path id="plain" fill="#007acc"
              d="M2,63.91v62.5H127V1.41H2Zm100.73-5a15.56,15.56,0,0,1,7.82,4.5,20.58,20.58,0,0,1,3,4c0,.16-5.4,3.81-8.69,5.85-.12.08-.6-.44-1.13-1.23a7.09,7.09,0,0,0-5.87-3.53c-3.79-.26-6.23,1.73-6.21,5a4.58,4.58,0,0,0,.54,2.34c.83,1.73,2.38,2.76,7.24,4.86,8.95,3.85,12.78,6.39,15.16,10,2.66,4,3.25,10.46,1.45,15.24-2,5.2-6.9,8.73-13.83,9.9a38.32,38.32,0,0,1-9.52-.1A23,23,0,0,1,80,109.19c-1.15-1.27-3.39-4.58-3.25-4.82a9.34,9.34,0,0,1,1.15-.73L82.5,101l3.59-2.08.75,1.11a16.78,16.78,0,0,0,4.74,4.54c4,2.1,9.46,1.81,12.16-.62a5.43,5.43,0,0,0,.69-6.92c-1-1.39-3-2.56-8.59-5-6.45-2.78-9.23-4.5-11.77-7.24a16.48,16.48,0,0,1-3.43-6.25,25,25,0,0,1-.22-8c1.33-6.23,6-10.58,12.82-11.87A31.66,31.66,0,0,1,102.73,58.93ZM73.39,64.15l0,5.12H57.16V115.5H45.65V69.26H29.38v-5a49.19,49.19,0,0,1,.14-5.16c.06-.08,10-.12,22-.1L73.33,59Z"/>
    </g>
</svg>