<svg xmlns="http://www.w3.org/2000/svg" viewBox="0 0 32 32">
    <g id="message_icon">
        <path d="M27.1,3.8H2.9c-1.5,0-2.8,1.3-2.8,2.8v16.7c0,1.5,1.3,2.8,2.8,2.8h24.1c1.5,0,2.8-1.3,2.8-2.8V6.6  C29.9,5.1,28.6,3.8,27.1,3.8z M28.4,23.4c0,0.7-0.6,1.3-1.3,1.3H2.9c-0.7,0-1.3-0.6-1.3-1.3V6.6c0-0.7,0.6-1.3,1.3-1.3h24.1  c0.7,0,1.3,0.6,1.3,1.3V23.4z M23.5,9.4l-8.4,7.9L6.7,9.4c-0.3-0.3-0.8-0.3-1.1,0c-0.3,0.3-0.3,0.8,0,1.1l5,4.7L6.8,19  c-0.3,0.3-0.3,0.8,0,1.1c0.1,0.1,0.3,0.2,0.5,0.2c0.2,0,0.4-0.1,0.5-0.2l3.9-3.9c0,0,0,0,0,0l2.9,2.7c0.1,0.1,0.3,0.2,0.5,0.2  c0.2,0,0.4-0.1,0.5-0.2l2.9-2.8c0,0,0,0.1,0.1,0.1l3.9,3.9c0.1,0.1,0.3,0.2,0.5,0.2c0.2,0,0.4-0.1,0.5-0.2c0.3-0.3,0.3-0.8,0-1.1  l-3.9-3.9c0,0,0,0-0.1,0l4.9-4.6c0.3-0.3,0.3-0.8,0-1.1S23.8,9.1,23.5,9.4z"/>
    </g>
    <g id="location_icon">
        <path d="M15.1,0.3c-6,0-10,4-10,9.8c0,7.8,7.2,17.5,9.1,19.4c0.1,0.1,0.3,0.2,0.5,0.2c0,0,0,0,0,0  c0.2,0,0.4-0.1,0.5-0.3c1-1.1,9.6-11.1,9.6-19.3C24.9,3.3,20,0.3,15.1,0.3z M14.7,27.8c-2.3-2.7-8.1-11.1-8.1-17.7  c0-5.1,3.3-8.3,8.5-8.3c3.8,0,8.3,2.2,8.3,8.3C23.4,16,18.2,23.8,14.7,27.8z M15,6.1c-2.2,0-4,1.8-4,4c0,2.2,1.8,4,4,4s4-1.8,4-4  C19,7.9,17.2,6.1,15,6.1z M15,12.6c-1.4,0-2.5-1.1-2.5-2.5c0-1.4,1.1-2.5,2.5-2.5s2.5,1.1,2.5,2.5C17.5,11.5,16.4,12.6,15,12.6z"/>
    </g>
    <g id="call_icon">
        <path d="M23.7,14.9c0,0.4,0.3,0.8,0.8,0.8s0.8-0.3,0.8-0.8c0-5.5-4.5-10-10-10c-0.4,0-0.8,0.3-0.8,0.8  s0.3,0.8,0.8,0.8C19.9,6.4,23.7,10.2,23.7,14.9z M14.5,9.7c0,0.4,0.3,0.8,0.8,0.8c2.4,0,4.3,1.9,4.3,4.3c0,0.4,0.3,0.8,0.8,0.8  s0.8-0.3,0.8-0.8c0-3.2-2.6-5.8-5.8-5.8C14.8,9,14.5,9.3,14.5,9.7z M15.2,0.2c-0.4,0-0.8,0.3-0.8,0.8s0.3,0.8,0.8,0.8  c7.2,0,13.1,5.9,13.1,13.1c0,0.4,0.3,0.8,0.8,0.8s0.8-0.3,0.8-0.8C29.8,6.8,23.3,0.2,15.2,0.2z M19.4,17.7c-0.1-0.1-0.3-0.2-0.5-0.2  h0c-0.2,0-0.4,0.1-0.5,0.2l-1.6,1.6c-0.6,0.6-1.6,0.6-2.2,0l-3.7-3.4c-0.6-0.6-0.6-1.6,0-2.2l1.8-1.8c0.3-0.3,0.3-0.8,0-1.1L5.3,3.5  C5.2,3.4,5,3.3,4.8,3.3c-0.2,0-0.4,0.1-0.5,0.2c-0.1,0.1-2.4,2.4-2.9,3C0,7.9-0.2,10.8,0.8,13.3c2.2,5.5,9.5,12.2,15.6,15.9  c0.5,0.3,1.7,0.6,2.9,0.6c0,0,0,0,0,0c1.1,0,2.7-0.2,4.1-1.4c1.3-1.1,2.8-2.7,2.9-2.8c0.3-0.3,0.3-0.8,0-1L19.4,17.7z M22.4,27.2  c-1,0.9-2.2,1-3.1,1c0,0,0,0,0,0c-1.1,0-2-0.3-2.1-0.4C10.3,23.7,4,17.4,2.2,12.7c-0.8-2.1-0.5-4.4,0.2-5.2C2.8,7.1,4,5.9,4.8,5.1  l6.2,6.2l-1.3,1.3c-1.2,1.2-1.2,3.1,0,4.3l3.7,3.4c1.1,1.1,3.1,1.1,4.3,0l1.1-1.1l5.8,5.8C24.1,25.7,23.2,26.6,22.4,27.2z"/>    </g>
</svg>